<svg xmlns="http://www.w3.org/2000/svg" xmlns:xlink="http://www.w3.org/1999/xlink" width="500" zoomAndPan="magnify" viewBox="0 0 375 374.999991" height="500" preserveAspectRatio="xMidYMid meet" version="1.0"><defs><g/><clipPath id="6df605009e"><path d="M 139 159 L 241 159 L 241 226.828125 L 139 226.828125 Z M 139 159 " clip-rule="nonzero"/></clipPath><clipPath id="534bc412b6"><path d="M 92.125 79.078125 L 265.375 79.078125 L 265.375 189 L 92.125 189 Z M 92.125 79.078125 " clip-rule="nonzero"/></clipPath><clipPath id="17183fc7dc"><path d="M 120 79.078125 L 249 79.078125 L 249 177 L 120 177 Z M 120 79.078125 " clip-rule="nonzero"/></clipPath></defs><rect x="-37.5" width="450" fill="#ffffff" y="-37.499999" height="449.999989" fill-opacity="1"/><rect x="-37.5" width="450" fill="#ffffff" y="-37.499999" height="449.999989" fill-opacity="1"/><rect x="-37.5" width="450" fill="#000000" y="-37.499999" height="449.999989" fill-opacity="1"/><g fill="#ffffff" fill-opacity="1"><g transform="translate(136.683306, 269.014802)"><g><path d="M 12.4375 -4.234375 C 13.15625 -4.234375 13.847656 -4.34375 14.515625 -4.5625 C 15.191406 -4.78125 15.691406 -4.988281 16.015625 -5.1875 L 16.484375 -5.515625 L 18.484375 -1.515625 C 18.410156 -1.472656 18.316406 -1.410156 18.203125 -1.328125 C 18.085938 -1.242188 17.816406 -1.085938 17.390625 -0.859375 C 16.972656 -0.640625 16.519531 -0.445312 16.03125 -0.28125 C 15.550781 -0.113281 14.921875 0.0351562 14.140625 0.171875 C 13.359375 0.304688 12.550781 0.375 11.71875 0.375 C 9.8125 0.375 8 -0.09375 6.28125 -1.03125 C 4.570312 -1.96875 3.191406 -3.257812 2.140625 -4.90625 C 1.097656 -6.550781 0.578125 -8.332031 0.578125 -10.25 C 0.578125 -11.695312 0.882812 -13.082031 1.5 -14.40625 C 2.113281 -15.738281 2.929688 -16.878906 3.953125 -17.828125 C 4.972656 -18.773438 6.164062 -19.53125 7.53125 -20.09375 C 8.894531 -20.664062 10.289062 -20.953125 11.71875 -20.953125 C 13.050781 -20.953125 14.273438 -20.789062 15.390625 -20.46875 C 16.515625 -20.15625 17.3125 -19.84375 17.78125 -19.53125 L 18.484375 -19.046875 L 16.484375 -15.0625 C 16.367188 -15.164062 16.191406 -15.285156 15.953125 -15.421875 C 15.722656 -15.566406 15.257812 -15.753906 14.5625 -15.984375 C 13.863281 -16.210938 13.15625 -16.328125 12.4375 -16.328125 C 11.3125 -16.328125 10.300781 -16.144531 9.40625 -15.78125 C 8.507812 -15.414062 7.796875 -14.929688 7.265625 -14.328125 C 6.742188 -13.734375 6.34375 -13.09375 6.0625 -12.40625 C 5.789062 -11.71875 5.65625 -11.015625 5.65625 -10.296875 C 5.65625 -8.734375 6.238281 -7.332031 7.40625 -6.09375 C 8.582031 -4.851562 10.257812 -4.234375 12.4375 -4.234375 Z M 12.4375 -4.234375 "/></g></g></g><g fill="#ffffff" fill-opacity="1"><g transform="translate(159.352331, 269.014802)"><g><path d="M -0.75 -20.578125 L 4.890625 -20.578125 L 9.171875 -13.984375 L 13.46875 -20.578125 L 19.109375 -20.578125 L 11.515625 -9.234375 L 11.515625 0 L 6.828125 0 L 6.828125 -9.234375 Z M -0.75 -20.578125 "/></g></g></g><g fill="#ffffff" fill-opacity="1"><g transform="translate(181.597421, 269.014802)"><g><path d="M 1.5 -20.578125 L 7.875 -20.578125 C 9.800781 -20.578125 11.335938 -20.164062 12.484375 -19.34375 C 13.640625 -18.519531 14.21875 -17.1875 14.21875 -15.34375 C 14.21875 -13.28125 13.359375 -11.804688 11.640625 -10.921875 C 14.566406 -10.410156 16.03125 -8.679688 16.03125 -5.734375 C 16.03125 -4.003906 15.429688 -2.613281 14.234375 -1.5625 C 13.035156 -0.519531 11.390625 0 9.296875 0 L 1.5 0 Z M 6.1875 -12.515625 L 6.5625 -12.515625 C 7.601562 -12.515625 8.378906 -12.695312 8.890625 -13.0625 C 9.410156 -13.425781 9.671875 -14.023438 9.671875 -14.859375 C 9.671875 -16.253906 8.632812 -16.953125 6.5625 -16.953125 L 6.1875 -16.953125 Z M 6.1875 -3.609375 L 7.65625 -3.609375 C 9.945312 -3.609375 11.09375 -4.375 11.09375 -5.90625 C 11.09375 -6.820312 10.804688 -7.476562 10.234375 -7.875 C 9.660156 -8.28125 8.800781 -8.484375 7.65625 -8.484375 L 6.1875 -8.484375 Z M 6.1875 -3.609375 "/></g></g></g><g fill="#ffffff" fill-opacity="1"><g transform="translate(202.096872, 269.014802)"><g><path d="M 13.265625 -20.578125 L 13.265625 -16.453125 L 6.1875 -16.453125 L 6.1875 -12.375 L 12.96875 -12.375 L 12.96875 -8.25 L 6.1875 -8.25 L 6.1875 -4.109375 L 13.265625 -4.109375 L 13.265625 0 L 1.5 0 L 1.5 -20.578125 Z M 13.265625 -20.578125 "/></g></g></g><g fill="#ffffff" fill-opacity="1"><g transform="translate(220.451695, 269.014802)"><g><path d="M 1.5 -20.578125 L 8.859375 -20.578125 C 10.835938 -20.578125 12.445312 -20.046875 13.6875 -18.984375 C 14.9375 -17.929688 15.5625 -16.425781 15.5625 -14.46875 C 15.5625 -12.945312 15.179688 -11.675781 14.421875 -10.65625 C 13.671875 -9.632812 12.644531 -8.914062 11.34375 -8.5 L 18.421875 0 L 12.46875 0 L 6.1875 -8.125 L 6.1875 0 L 1.5 0 Z M 6.1875 -11.453125 L 6.734375 -11.453125 C 7.160156 -11.453125 7.523438 -11.457031 7.828125 -11.46875 C 8.128906 -11.488281 8.46875 -11.546875 8.84375 -11.640625 C 9.226562 -11.742188 9.535156 -11.882812 9.765625 -12.0625 C 10.003906 -12.25 10.207031 -12.515625 10.375 -12.859375 C 10.539062 -13.210938 10.625 -13.640625 10.625 -14.140625 C 10.625 -14.640625 10.539062 -15.0625 10.375 -15.40625 C 10.207031 -15.757812 10.003906 -16.023438 9.765625 -16.203125 C 9.535156 -16.390625 9.226562 -16.53125 8.84375 -16.625 C 8.46875 -16.726562 8.128906 -16.785156 7.828125 -16.796875 C 7.523438 -16.816406 7.160156 -16.828125 6.734375 -16.828125 L 6.1875 -16.828125 Z M 6.1875 -11.453125 "/></g></g></g><g fill="#ffffff" fill-opacity="1"><g transform="translate(115.954097, 289.452696)"><g><path d="M 0.953125 -13.171875 L 5.671875 -13.171875 C 6.929688 -13.171875 7.960938 -12.832031 8.765625 -12.15625 C 9.566406 -11.476562 9.96875 -10.515625 9.96875 -9.265625 C 9.96875 -8.296875 9.722656 -7.484375 9.234375 -6.828125 C 8.753906 -6.171875 8.097656 -5.710938 7.265625 -5.453125 L 11.796875 0 L 7.984375 0 L 3.953125 -5.203125 L 3.953125 0 L 0.953125 0 Z M 3.953125 -7.328125 L 4.3125 -7.328125 C 4.59375 -7.328125 4.828125 -7.332031 5.015625 -7.34375 C 5.203125 -7.351562 5.414062 -7.390625 5.65625 -7.453125 C 5.90625 -7.515625 6.101562 -7.601562 6.25 -7.71875 C 6.40625 -7.84375 6.535156 -8.015625 6.640625 -8.234375 C 6.742188 -8.460938 6.796875 -8.734375 6.796875 -9.046875 C 6.796875 -9.367188 6.742188 -9.640625 6.640625 -9.859375 C 6.535156 -10.085938 6.40625 -10.257812 6.25 -10.375 C 6.101562 -10.5 5.90625 -10.59375 5.65625 -10.65625 C 5.414062 -10.71875 5.203125 -10.753906 5.015625 -10.765625 C 4.828125 -10.773438 4.59375 -10.78125 4.3125 -10.78125 L 3.953125 -10.78125 Z M 3.953125 -7.328125 "/></g></g></g><g fill="#ffffff" fill-opacity="1"><g transform="translate(136.197547, 289.452696)"><g><path d="M 8.5 -13.171875 L 8.5 -10.546875 L 3.953125 -10.546875 L 3.953125 -7.921875 L 8.296875 -7.921875 L 8.296875 -5.28125 L 3.953125 -5.28125 L 3.953125 -2.640625 L 8.5 -2.640625 L 8.5 0 L 0.953125 0 L 0.953125 -13.171875 Z M 8.5 -13.171875 "/></g></g></g><g fill="#ffffff" fill-opacity="1"><g transform="translate(154.270316, 289.452696)"><g><path d="M 12.875 -7.375 L 12.875 -4.515625 C 12.53125 -2.953125 11.78125 -1.769531 10.625 -0.96875 C 9.476562 -0.164062 8.195312 0.234375 6.78125 0.234375 C 5.007812 0.234375 3.5 -0.425781 2.25 -1.75 C 1 -3.082031 0.375 -4.691406 0.375 -6.578125 C 0.375 -8.492188 0.984375 -10.109375 2.203125 -11.421875 C 3.429688 -12.742188 4.957031 -13.40625 6.78125 -13.40625 C 8.925781 -13.40625 10.617188 -12.65625 11.859375 -11.15625 L 9.90625 -9 C 9.195312 -10.132812 8.21875 -10.703125 6.96875 -10.703125 C 6.039062 -10.703125 5.25 -10.296875 4.59375 -9.484375 C 3.9375 -8.679688 3.609375 -7.710938 3.609375 -6.578125 C 3.609375 -5.460938 3.9375 -4.503906 4.59375 -3.703125 C 5.25 -2.910156 6.039062 -2.515625 6.96875 -2.515625 C 7.726562 -2.515625 8.394531 -2.742188 8.96875 -3.203125 C 9.539062 -3.671875 9.828125 -4.289062 9.828125 -5.0625 L 6.78125 -5.0625 L 6.78125 -7.375 Z M 12.875 -7.375 "/></g></g></g><g fill="#ffffff" fill-opacity="1"><g transform="translate(176.317351, 289.452696)"><g><path d="M 3.953125 -13.171875 L 3.953125 0 L 0.953125 0 L 0.953125 -13.171875 Z M 3.953125 -13.171875 "/></g></g></g><g fill="#ffffff" fill-opacity="1"><g transform="translate(190.04875, 289.452696)"><g><path d="M 11.84375 0 L 11.21875 -7.8125 L 11.140625 -7.8125 L 8.453125 -0.078125 L 6.65625 -0.078125 L 3.953125 -7.8125 L 3.875 -7.8125 L 3.25 0 L 0.25 0 L 1.4375 -13.171875 L 4.625 -13.171875 L 7.546875 -5.578125 L 10.46875 -13.171875 L 13.671875 -13.171875 L 14.84375 0 Z M 11.84375 0 "/></g></g></g><g fill="#ffffff" fill-opacity="1"><g transform="translate(213.963216, 289.452696)"><g><path d="M 8.5 -13.171875 L 8.5 -10.546875 L 3.953125 -10.546875 L 3.953125 -7.921875 L 8.296875 -7.921875 L 8.296875 -5.28125 L 3.953125 -5.28125 L 3.953125 -2.640625 L 8.5 -2.640625 L 8.5 0 L 0.953125 0 L 0.953125 -13.171875 Z M 8.5 -13.171875 "/></g></g></g><g fill="#ffffff" fill-opacity="1"><g transform="translate(232.035988, 289.452696)"><g><path d="M 3.953125 -8.171875 L 3.953125 0 L 0.953125 0 L 0.953125 -13.171875 L 3.953125 -13.171875 L 9.203125 -5 L 9.234375 -5 L 9.234375 -13.171875 L 12.234375 -13.171875 L 12.234375 0 L 9.234375 0 L 4 -8.171875 Z M 3.953125 -8.171875 "/></g></g></g><g fill="#ffffff" fill-opacity="1"><g transform="translate(254.035147, 289.452696)"><g><path d="M 0.125 -10.546875 L 0.125 -13.171875 L 9.390625 -13.171875 L 9.390625 -10.546875 L 6.265625 -10.546875 L 6.265625 0 L 3.25 0 L 3.25 -10.546875 Z M 0.125 -10.546875 "/></g></g></g><g clip-path="url(#6df605009e)"><path fill="#bf1b2c" d="M 163.179688 183.523438 C 154.988281 183.523438 147.027344 182.878906 139.425781 181.660156 C 141.199219 184.625 143.089844 187.519531 145.09375 190.335938 C 155.472656 204.925781 168.863281 217.445312 184.667969 226.835938 C 210.910156 211.242188 230.507812 187.03125 240.683594 159.019531 C 222.855469 173.917969 194.769531 183.523438 163.179688 183.523438 " fill-opacity="1" fill-rule="nonzero"/></g><path fill="#ed1c24" d="M 171.261719 187.347656 C 165.53125 187.347656 159.964844 186.894531 154.648438 186.042969 C 155.890625 188.117188 157.210938 190.140625 158.613281 192.109375 C 165.871094 202.316406 175.234375 211.066406 186.289062 217.632812 C 204.640625 206.730469 218.34375 189.800781 225.457031 170.210938 C 212.992188 180.628906 193.351562 187.347656 171.261719 187.347656 " fill-opacity="1" fill-rule="nonzero"/><g clip-path="url(#534bc412b6)"><path fill="#bf1b2c" d="M 232.640625 79.085938 C 246.367188 89.839844 254.601562 103.574219 254.601562 118.542969 C 254.601562 153.019531 210.925781 180.964844 157.050781 180.964844 C 132.148438 180.964844 109.425781 174.996094 92.1875 165.167969 C 110.078125 179.183594 137.292969 188.132812 167.777344 188.132812 C 221.65625 188.132812 265.332031 160.183594 265.332031 125.710938 C 265.332031 107.171875 252.699219 90.515625 232.640625 79.085938 " fill-opacity="1" fill-rule="nonzero"/></g><g clip-path="url(#17183fc7dc)"><path fill="#bf1b2c" d="M 152.453125 176.359375 C 199.476562 176.359375 238.730469 155.066406 247.953125 126.726562 C 248.289062 123.183594 248.480469 119.609375 248.523438 116.019531 L 224.84375 102.324219 L 184.667969 79.085938 L 120.816406 116.019531 C 121.058594 137.046875 126.402344 157.386719 135.9375 175.464844 C 141.308594 176.050781 146.824219 176.359375 152.453125 176.359375 " fill-opacity="1" fill-rule="nonzero"/></g><path fill="#ed1c24" d="M 159.359375 170.210938 C 196.304688 170.210938 227.144531 153.480469 234.386719 131.21875 C 234.648438 128.433594 234.800781 125.628906 234.832031 122.808594 L 216.230469 112.046875 L 184.667969 93.789062 L 134.503906 122.808594 C 134.695312 139.324219 138.894531 155.304688 146.386719 169.507812 C 150.601562 169.96875 154.9375 170.210938 159.359375 170.210938 " fill-opacity="1" fill-rule="nonzero"/></svg>